Coordinates
version=1
nRows=16
nColumns=36
inDegrees=yes

Units are S.I. units (second, meters, Newtons, ...)
If the header above contains a line with 'inDegrees', this indicates whether rotational values are in degrees (yes) or radians (no).

endheader
time	pelvis_tilt	pelvis_list	pelvis_rotation	pelvis_tx	pelvis_ty	pelvis_tz	hip_flexion_r	hip_adduction_r	hip_rotation_r	knee_angle_r	knee_angle_r_beta	ankle_angle_r	subtalar_angle_r	mtp_angle_r	hip_flexion_l	hip_adduction_l	hip_rotation_l	knee_angle_l	knee_angle_l_beta	ankle_angle_l	subtalar_angle_l	mtp_angle_l	lumbar_extension	lumbar_bending	lumbar_rotation	arm_flex_r	arm_add_r	arm_rot_r	elbow_flex_r	pro_sup_r	arm_flex_l	arm_add_l	arm_rot_l	elbow_flex_l	pro_sup_l
      2.40000000	    -10.55162739	      0.22851182	     -3.27130154	      0.91322592	      1.15920168	      0.00543736	     11.25601995	     -8.73648537	     -8.18649037	      4.16651816	      0.07271946	    -22.55503250	      3.02416691	     -7.49999987	     11.96670257	     -6.87260032	    -14.71098074	      1.80819963	      0.03155904	    -25.57788539	      0.21629222	     -7.49999987	    -10.67754793	      1.08394934	      1.86574930	     -1.08131679	    -16.06597658	     16.15507700	     37.10141906	     70.14524857	     -7.43701245	    -12.27403696	      2.77437251	     63.64832168	     75.86806928
      2.41666670	    -10.43376891	      0.26802939	     -3.17003436	      0.91447792	      1.17975098	      0.00548231	     11.18836819	     -8.87922729	     -8.22240287	      4.17552687	      0.07287669	    -22.47302978	      3.41219073	     -7.49999987	     11.88528806	     -6.79353803	    -14.38135172	      1.53656126	      0.02681805	    -25.90033314	      1.27938520	     -7.49999987	    -10.53211385	      0.95086798	      1.81628812	     -1.21401508	    -15.89073044	     16.00963269	     37.21133973	     68.96298571	     -7.14725491	    -12.15504869	      2.92186133	     62.63989008	     74.36003361
      2.43333330	    -10.42424005	      0.33797970	     -3.25463727	      0.92029182	      1.18576993	      0.00372399	     11.18450744	     -9.06628548	     -8.00161707	      4.49950178	      0.07853112	    -22.43329702	      3.85538751	     -7.49999987	     11.78258964	     -6.68670819	    -14.26018358	      1.62022298	      0.02827823	    -26.29429846	      2.04904609	     -7.49999987	     -9.56569452	      0.87378224	      1.79022613	     -0.65217389	    -15.58454355	     16.95567571	     35.62267723	     69.16541153	     -7.26241554	    -11.94456809	      3.28647802	     60.69320900	     74.69715669
      2.45000000	    -10.39334727	      0.53234715	     -3.40667210	      0.92077833	      1.19245179	      0.00407934	     11.21127444	     -9.34984116	     -7.73164690	      4.64936901	      0.08114680	    -22.38944164	      4.11379974	     -7.49999987	     11.73807848	     -6.46614142	    -14.00940350	      1.73621071	      0.03030259	    -26.84407572	      2.44039465	     -7.49999987	     -9.23654167	      0.59381983	      1.78741098	     -0.69815485	    -15.47296170	     17.13151326	     35.41530323	     69.17486288	     -7.41748895	    -11.84424737	      3.29797252	     60.28890741	     74.73103933
      2.46666670	    -10.34127345	      0.38934792	     -3.46827718	      0.92978987	      1.19940936	      0.01149872	     10.71699965	     -9.01858727	     -7.64270379	      4.45727601	      0.07779414	    -21.94241979	      4.08502695	     -7.49999987	     11.20204484	     -6.68586086	    -13.45140835	      1.39843787	      0.02440735	    -26.29272846	      2.77784490	     -7.49999987	     -8.55372287	      0.46617269	      1.93941254	     -0.95155165	    -15.17686830	     17.31129689	     35.14382887	     69.18447499	     -7.83147340	    -11.83213819	      3.29543821	     59.77076605	     74.72859801
      2.48333330	    -10.10410760	      0.15659813	     -3.36750989	      0.93038730	      1.20405754	      0.01109413	     10.41373472	     -8.71146308	     -7.56256433	      4.85117086	      0.08466890	    -21.32438919	      4.04448568	     -7.49999987	     10.97133603	     -6.95515676	    -13.41370034	      1.68127859	      0.02934385	    -25.60853343	      3.57720227	     -7.49999987	     -7.97018286	      0.68706445	      1.83099045	     -0.15162149	    -14.56420558	     18.10720101	     32.61889496	     69.16603484	     -6.98305666	    -11.43892709	      3.42828480	     56.31555090	     74.70709044
      2.50000000	     -9.94414186	      0.02152416	     -3.42571339	      0.92994460	      1.20762233	      0.01077064	     10.34469254	     -8.48066440	     -7.55052094	      5.40350852	      0.09430901	    -21.06580383	      3.66533535	     -7.49999987	     10.92830727	     -7.15301715	    -12.99972061	      2.03087204	      0.03544540	    -25.25314621	      3.48909179	     -7.49999987	     -7.51090640	      0.73593782	      1.91119226	      0.49844768	    -14.20818463	     18.95199859	     31.05316148	     68.00573650	     -6.32845760	    -11.42866991	      4.32701729	     54.36838518	     73.24071183
      2.51666670	     -9.88002790	     -0.06120938	     -3.51274181	      0.93022892	      1.20409086	      0.01074798	     10.53951456	     -8.30075907	     -7.47088106	      5.92323932	      0.10338003	    -20.41937265	      3.25304556	     -7.49999987	     11.01162357	     -7.34973292	    -12.69798156	      2.58179650	      0.04506085	    -24.70663720	      3.58322334	     -7.49999987	     -7.29816396	      0.70486581	      1.93681447	      1.13186578	    -13.93941704	     19.49113205	     30.35384616	     67.94462855	     -5.98877136	    -11.34600670	      4.61103871	     53.12520306	     73.23957290
      2.53333330	     -9.72277135	     -0.28208670	     -3.49108889	      0.93026361	      1.20214557	      0.01051167	     10.52970142	     -7.96531476	     -7.34129386	      6.24040131	      0.10891555	    -19.38122180	      3.13312878	     -7.49999987	     11.14904978	     -7.69146515	    -12.01357498	      3.09291023	      0.05398147	    -23.98305023	      3.79684052	     -7.49999987	     -7.39045628	      0.81296856	      1.93661397	      1.46741279	    -13.89430887	     19.78248295	     30.46162286	     67.49419341	     -5.71545324	    -11.29778290	      4.60770073	     52.42630609	     72.66825280
      2.55000000	     -9.84568604	     -0.32980550	     -3.32999778	      0.92468078	      1.19006279	      0.01214612	     11.04590758	     -7.81424427	     -6.99896372	      6.74642363	      0.11774731	    -18.35634334	      2.93756328	     -7.49999987	     11.88431431	     -7.90604384	    -11.37204284	      3.85967249	      0.06736399	    -23.35628595	      3.83831561	     -7.49999987	     -7.44983104	      0.62006396	      1.86082833	      1.72089602	    -13.83488259	     19.83405374	     30.88263061	     67.41324631	     -5.33980303	    -11.42536094	      4.61172946	     52.55568497	     72.55876724
      2.56666670	    -10.08843792	     -0.24174200	     -3.13720896	      0.92040604	      1.18208226	      0.00826675	     12.06535508	     -7.97776871	     -6.92335041	      7.60114804	      0.13266506	    -17.24249459	      2.67318360	     -7.49999987	     12.80496463	     -7.91604025	    -10.40819484	      4.60931483	      0.08044772	    -21.76212608	      3.90344517	     -7.49999987	     -7.63409322	      0.38215359	      1.73638927	      2.34251428	    -13.95750175	     19.87693314	     31.47989278	     67.31128171	     -4.84906201	    -11.51898340	      4.72521263	     52.65503058	     72.45314295
      2.58333330	    -10.15554869	     -0.30321483	     -2.80729192	      0.92599116	      1.17425667	      0.01219076	     12.24289659	     -7.88049641	     -7.58234796	      7.51031472	      0.13107972	    -16.88233133	      2.92041446	     -7.49999987	     13.50477884	     -8.18108715	     -9.72616759	      5.32833775	      0.09299704	    -20.51993789	      3.83920425	     -7.49999987	     -7.50610310	      0.29772496	      1.61116877	      3.00033320	    -13.79518376	     20.50263853	     30.86727371	     66.52108503	     -3.90147198	    -11.75515916	      5.68701348	     51.29318544	     71.85556647
      2.60000000	    -10.13775003	     -0.31090913	     -2.57676176	      0.92098717	      1.15600328	      0.00800640	     12.51891740	     -8.03017305	     -7.75580508	      7.67219892	      0.13390513	    -16.54899417	      2.67984618	     -7.49999987	     14.12213297	     -8.40994196	     -9.56468808	      6.05949035	      0.10575806	    -19.78584812	      3.28301177	     -7.49999987	     -7.77356941	      0.17271396	      1.54110160	      3.35913329	    -14.09905800	     20.67937633	     32.08873631	     66.21281695	     -3.50879637	    -11.96189388	      5.88725928	     51.96411084	     71.46972670
      2.61666670	    -10.12560127	     -0.33378287	     -2.24892650	      0.92172438	      1.13347234	      0.00773817	     12.83038292	     -8.22770378	     -8.33570842	      8.22797069	      0.14360518	    -15.80706974	      2.27140635	     -7.49999987	     14.94903205	     -8.59749357	     -9.46837575	      7.11907932	      0.12425137	    -18.41865086	      2.05258660	     -7.49999987	     -7.56529764	      0.00929416	      1.18646846	      4.42792918	    -14.17968894	     21.52032795	     32.30560579	     66.31325326	     -2.69705255	    -12.23773085	      6.66997643	     51.33201413	     72.09243756
      2.63333330	     -9.98222560	     -0.46386445	     -2.13926150	      0.92658268	      1.11816920	      0.01131879	     12.79604311	     -8.14258007	     -8.63130411	      8.46299365	      0.14770710	    -15.31433872	      1.98780953	     -7.49999987	     15.20003209	     -8.97139556	     -9.54120931	      7.78901399	      0.13594394	    -17.33725478	      1.44246208	     -7.49999987	     -7.64927088	      0.03272999	      1.08482234	      5.17486841	    -14.44841791	     21.43130266	     33.40405948	     66.08190616	     -2.59619732	    -12.47229910	      6.67429724	     51.65849637	     71.80169467
      2.65000000	     -9.94744608	     -0.69165061	     -2.17400526	      0.92692327	      1.08956580	      0.01102515	     13.25383486	     -8.01613256	     -8.92620692	      9.46512544	      0.16519760	    -15.08234998	      1.49244714	     -7.49999987	     15.56904918	     -9.45774625	     -9.34878068	      8.50011369	      0.14835497	    -16.62447845	      1.04915771	     -7.49999987	     -7.54871379	      0.20799737	      1.09396918	      5.90712609	    -14.74055008	     21.33101260	     34.15733895	     65.97884851	     -2.33143522	    -12.52168359	      6.70015604	     52.01441462	     71.65617377
